<?xml version="1.0" encoding="UTF-8"?><!DOCTYPE svg PUBLIC "-//W3C//DTD SVG 1.1//EN" "http://www.w3.org/Graphics/SVG/1.1/DTD/svg11.dtd"><svg xmlns="http://www.w3.org/2000/svg" xmlns:xlink="http://www.w3.org/1999/xlink" version="1.1" width="24" height="24" viewBox="0 0 24 24"><path d="M12 20C16.4194 20 20 16.4161 20 12C20 7.58 16.4194 4 12 4C7.57939 4 4 7.58 4 12C4 16.4161 7.57939 20 12 20ZM12 2C17.5204 2 22 6.4751 22 12C22 17.5212 17.5204 22 12 22C6.46735 22 2 17.5212 2 12C2 6.4751 6.46735 2 12 2ZM12.5 7L12.5 12.2481L17 14.9172L16.2464 16.1482L11 13L11 7L12.5 7Z" /></svg>